<svg id="Layer_1" enable-background="new 0 0 500 500" viewBox="0 0 500 500" xmlns="http://www.w3.org/2000/svg"><g fill="currentColor"><path d="m175.1 303.996c-4.775-12.189-30.993-29.818-30.993-29.818s2.841 30.16-.554 36.214c-6.487 11.562-4.066 18.253-.899 27.022 3.167 8.77-1.153 17.599-2.753 23.838-1.601 6.239 4.173 7.105 9.947 7.971 5.774.864 6.299-.814 13.002 1.522 6.705 2.336 7.045-1.76 9.959-2.414 2.915-.652 1.536-3.583-.242-9.905-1.777-6.322-7.77-8.156-12.967-12.873-5.199-4.715 1.924-9.612 2.794-15.628.872-6.015 12.706-25.929 12.706-25.929z"/><path d="m377.951 10.426c-1.783-5.142-6.167 1.368-9.26 7.099 2.326 3.029 7.273 10.519 9.647 17.416 1.524-7.161.759-21.215-.387-24.515z"/><path d="m144.959 72.725c2.759-.512 13.073-.014 13.073-.014 0-4.052-13.441-34.793-14.546-25.952-1.105 8.838-17.495 34.806-17.495 34.806 9.023-5.135 13.996-7.919 18.968-8.84z"/><path d="m455.778 83.353c-11.045-1.969-25.334-.867-40.004-18.859-14.669-17.995-26.51-9.798-36.812-18.582-1.807-1.54-3.08-3.473-3.981-5.634-.002-.001-.007-.011-.007-.011-8.66-18.93-15.253-25.317-15.33-25.394-.677-.653-1.38-1.254-2.083-1.736-3.825-2.635-11.685 23.521-15.811 40.975-4.124 17.45-3.488 14.015-35.444 32.998-1.607.954-3.11 1.859-4.55 2.732 1.652 5.111 2.914 10.236 3.496 14.158h14.815c24.79-27.249 30.97-27.247 33.652-27.247 4.701 0 8.362 3.524 8.707 8.379.582 8.188-1.653 34.613-2.332 42.311 1.525 3.845 5.282 13.291 6.708 16.64.867 2.033 1.007 4.195.687 6.395 2.241-2.349 4.417-4.698 6.612-7.119 6.23-6.876 23.392-13.467 26.307-13.688 5.708-.426 28.419-1.714 33.342-1.372 17.801 1.236 23.927-22.686 30.159-30.218 6.38-7.71 2.916-12.76-8.131-14.728z"/><path d="m88.597 143.238.636-2.09 1.585-1.506c.946-.898 6.472-6.139 11.833-10.996l-.055-.203c-23.208-.765-35.652-1.699-41.5-11.142-9.646-15.572-10.032-32.101-1.147-49.122 7.178-13.751 15.486-20.712 18.046-22.981 2.56-2.27 12.078-10.749 15.441-9.681 1.573.542 3.096 1.577 4.368 3.377 7.519 10.639 16.415 10.576 18.99 10.557 2.574-.019 4.077-4.138-.034-4.636-5.118-.618-9.73-.799-14.458-8.488-.656-1.067-1.351-2.336-1.895-3.359-.174-.329.243-.645.514-.394 2.073 1.944 6.007 5.083 9.999 5.312 1.062.061 2.538-.063 3.836-.442 1.792-.522 3.251-1.666 4.661-2.773.488-.384.961-.757 1.439-1.101 1.368-.755 2.88-.491 6.138 3.071.271.296.64.444 1.011.441.298-.002.595-.103.842-.303.619-.5.616-1.459.077-2.045-1.054-1.144-2.148-2.212-3.296-2.991.867-.016 1.826.124 2.919.466.791.246 1.644-.273 1.75-1.141.081-.668-.383-1.276-1.026-1.473-5.602-1.712-8.886.867-11.529 2.941-1.262.992-2.5 1.799-3.743 2.306-6.013 2.443-14.968-7.486-15.518-7.87.009-.143.014-.284.018-.424.009-.411.328-.746.737-.785 7.42-.695 19.604-1.799 21.939-2.015 3.449-.321 3.59-4.238 3.59-4.238-.045-6.179-1.56-11.014-16.803-10.947-21.032.089-23.072-1.362-38.073 14.028-.094.095-18.234 13.934-29.15 34.641-12.851 24.377-12.427 49.11 1.569 71.707 9.936 16.041 26.134 19.715 45.377 20.971.003-2.637.397-4.977.912-6.672zm20.433-129.533c1.563-.011 2.841 1.246 2.853 2.811.011 1.563-1.248 2.839-2.811 2.851-1.564.013-2.842-1.246-2.854-2.811-.011-1.564 1.248-2.839 2.812-2.851z"/><path d="m359.786 148.059c-1.858-4.339-7.436-18.902-7.436-18.902s3.099-35.02 2.479-43.693c-.619-8.677-31.603 23.536-31.603 23.536h-26.336s-2.478-21.676-8.366-30.973c-5.887-9.295-39.039 53.922-39.039 53.922l-17.041 56.701c-.62 4.646-1.222 7.387-2.33 14.41-.357 2.265-4.665 4.525-5.915-1.699-.179-3.334.031-8.089.949-15.014.053-.396.136-.785.25-1.168l17.05-57.05c.147-.491.344-.967.587-1.419.177-.328 2.763-5.109 6.578-11.739-6.87.861-14.203.827-20.66.464-7.531-2.399-14.292-4.752-19.481-7.401-4.023 2.226-8.036 3.887-11.641 4.396-.702.099-1.4.144-2.088.144-6.491 0-12.092-4.001-12.351-4.189-1.235-.896-1.51-2.623-.615-3.858.894-1.232 2.615-1.511 3.852-.618.053.037 5.336 3.781 10.429 3.052 5.717-.808 13.346-5.536 20.138-10.68 5.034-5.884 6.792-10.951 2.348-10.663-6.654.429-22.387.265-34.921 1.07-10.123-8.257-16.848-9.601-21.844-9.866-11.06-1.568-19.462 1.163-29.931 6.206-11.602 4.403-22.763 9.763-23.866 32.405l2.276 13.276-16.389 24.126s-.921 1.288 4.973 7.181c.387.387.782.739 1.184 1.066 1.268 7.402 6.437 13.286 5.956 9.445-.204-1.636-.083-4.067.159-6.527 4.286.912 8.858.016 12.99-1.132.073-.02.146-.04.219-.06 1.77 3.006 3.587 5.998 4.722 6.743 1.62 1.065 1.933-4.676 1.966-8.501 4.332-1.074 8.792-2.055 13.833-3.015 7.734-1.472 10.949-6.859 10.949-6.859s-1.556 8.081-7.816 16.184c-3.768 4.875-8.714 7.355-12.625 9.523-1.539-4.71-4.552-7.803-4.218-5.133.252 2.015-.102 5.502-.486 8.32-.415.412-.779.84-1.05 1.306-1.575 2.702-6.605 2.573-10.364 1.73-.972-3.587-2.275-9.458-3.073-10.632-.848-1.246-1.321 5.288-1.505 8.627-.509.826-1.35 9.113 3.59 9.741 6.245.79 13.147.705 15.212-.605 4.043-2.564 17.871-11.07 25.607-13.279 7.734-2.21 11.785-14.732 21.362-8.472 7.083 4.632 16.665 23.99 23.264 38.083-2.089-.668-3.916-2.146-4.945-4.278-4.638-9.608-21.306-23.695-23.999-24.081-2.693-.385-8.663 5.36-13.406 6.716-3.755 1.073-9.949 4.915-14.472 7.723-3.522 2.185-6.304 3.909-8.558 4.851-5.793 2.413-15.16 3.338-23.027-.033-8.031-3.441-9.852-11.729-10.962-16.733-.363-1.635-.932-3.775-1.677-5.966-12.801 35.239-1.921 59.991-4.262 67.016-2.486 7.458-9.667 26.795-9.944 39.502-.276 12.708-2.486 52.486-7.458 63.258-4.973 10.774-8.288 12.983-15.469 19.06-7.183 6.078-2.487 14.643-.553 21.547 1.934 6.907 5.249 1.105 15.193 2.21 9.945 1.104 12.983-.829 14.641-7.733 1.657-6.908 14.823-24.953 13.442-35.451s6.353-24.124 11.05-32.412c4.696-8.287 2.486-19.982 8.84-30.203s12.689-9.279 17.661-19.776c.582-1.229 44.851 34.438 51.768 51.268 8.287 20.164 12.431 16.574 12.431 32.597 0 16.021 7.642 49.446 8.747 64.086 1.104 14.642 1.69 22.198 2.946 28.729 1.381 7.184 9.412 9.584.572 22.015-8.84 12.429-4.254 15.697-4.255 25.221-.001 5.802 6.719 5.777 14.207 6.985 6.841 1.104 12.865-.63 20.599.475 7.735 1.104 11.602-5.801 9.669-17.403-1.934-11.602-6.63-9.944-10.773-27.348-4.144-17.403-6.63-94.197-6.078-103.037.553-8.839 16.021-17.402 19.613-20.718 3.591-3.314 13.536-4.144 20.165-2.486 6.63 1.658 10.774 63.535 9.393 76.243-1.381 12.707.276 11.601 3.038 14.086 2.762 2.487.979 8.293.979 8.293-7.017 7.167.597 16.438 2.089 22.112 1.494 5.672 9.48 8.659 15.602 9.18 6.122.523 11.766.071 16.992.221 5.225.148 14.785 1.104 14.153-8.681-.809-12.52-14.733-13.995-24.31-27.993-9.576-13.995 2.211-70.717 0-91.343-2.209-20.626 26.52-30.201 26.52-49.354 0-13.741-4.929-22.308-6.627-46.649l-28.29-8.285c-.001 0-.001 0-.002 0-5.917-2-4.441-6.745.272-5.688s38.653 9.858 42.046 9.901 14.231-4.263 15.802-5.231c1.571-.971 5.113-7.114 5.887-10.212.773-3.097-21.689-41.817-21.998-43.058-.309-1.237 8.676-13.317 6.816-17.653zm-195.121-32.794c-1.474 2.025-25.783 18.049-24.126 14.365l3.684-10.313c-.001-.001 21.915-6.077 20.442-4.052zm122.321 36.957c-1.511-1.997 23.93 3.791 23.93 3.791l4.028 12.32c1.725 3.654-26.446-14.113-27.958-16.111z"/></g></svg>
